<?xml version="1.0" encoding="UTF-8" standalone="no"?>
<svg
   xmlns:dc="http://purl.org/dc/elements/1.1/"
   xmlns:cc="http://creativecommons.org/ns#"
   xmlns:rdf="http://www.w3.org/1999/02/22-rdf-syntax-ns#"
   xmlns:svg="http://www.w3.org/2000/svg"
   xmlns="http://www.w3.org/2000/svg"
   xmlns:sodipodi="http://sodipodi.sourceforge.net/DTD/sodipodi-0.dtd"
   xmlns:inkscape="http://www.inkscape.org/namespaces/inkscape"
   inkscape:version="1.0 (4035a4fb49, 2020-05-01)"
   sodipodi:docname="ph.svg"
   xml:space="preserve"
   enable-background="new 0 0 96 96"
   viewBox="0 0 96 96"
   height="96px"
   width="96px"
   y="0px"
   x="0px"
   id="Слой_1"
   version="1.1"><metadata
   id="metadata1014"><rdf:RDF><cc:Work
       rdf:about=""><dc:format>image/svg+xml</dc:format><dc:type
         rdf:resource="http://purl.org/dc/dcmitype/StillImage" /><dc:title></dc:title></cc:Work></rdf:RDF></metadata><defs
   id="defs1012" /><sodipodi:namedview
   inkscape:current-layer="Слой_1"
   inkscape:window-maximized="1"
   inkscape:window-y="32"
   inkscape:window-x="-8"
   inkscape:cy="48"
   inkscape:cx="26.258824"
   inkscape:zoom="8.8541667"
   showgrid="false"
   id="namedview1010"
   inkscape:window-height="1017"
   inkscape:window-width="1920"
   inkscape:pageshadow="2"
   inkscape:pageopacity="0"
   guidetolerance="10"
   gridtolerance="10"
   objecttolerance="10"
   borderopacity="1"
   bordercolor="#666666"
   pagecolor="#ffffff" />
<path
   id="path955"
   d="M88,49c0,29.635-10.36,40-40,40C18.367,89,8,78.635,8,49S18.367,9,48,9  S88,19.367,88,49z"
   enable-background="new    "
   opacity="0.4" />
<linearGradient
   gradientTransform="matrix(1 0 0 -1 0 97)"
   y2="9.353"
   x2="48"
   y1="89.353"
   x1="48"
   gradientUnits="userSpaceOnUse"
   id="SVGID_1_">
	<stop
   id="stop957"
   style="stop-color:#454449;stop-opacity:1"
   offset="0" />
	<stop
   id="stop959"
   style="stop-color:#222126;stop-opacity:1"
   offset="1" />
</linearGradient>
<path
   id="path962"
   d="M88,48c0,29.635-10.36,40-40,40C18.367,88,8,77.635,8,48S18.367,8,48,8S88,18.367,88,48z"
   fill="url(#SVGID_1_)" />
<linearGradient
   gradientTransform="matrix(1 0 0 -1 0 97)"
   y2="9.518"
   x2="48"
   y1="88.763"
   x1="48"
   gradientUnits="userSpaceOnUse"
   id="SVGID_2_">
	<stop
   id="stop964"
   style="stop-color:#FFFFFF"
   offset="0" />
	<stop
   id="stop966"
   style="stop-color:#FFFFFF"
   offset="1" />
</linearGradient>
<path
   id="path969"
   d="M48,8C18.367,8,8,18.367,8,48s10.367,40,40,40  c29.64,0,40-10.365,40-40S77.637,8,48,8z M48,87C18.842,87,9,77.158,9,48S18.842,9,48,9s39,9.842,39,39S77.16,87,48,87z"
   enable-background="new    "
   fill="url(#SVGID_2_)"
   opacity="0.15" />
<g
   id="g1007"
   transform="matrix(0.41368,0,0,0.41368,18.083614,28.741014)">
	
		<linearGradient
   gradientTransform="matrix(0.4137,0,0,-0.4137,-621.131,-570.9557)"
   y2="-1518.1238"
   x2="1676.842"
   y1="-1610.5568"
   x1="1676.778"
   gradientUnits="userSpaceOnUse"
   id="SVGID_3_">
		<stop
   id="stop971"
   style="stop-color:#CDC9CB"
   offset="0" />
		<stop
   id="stop973"
   style="stop-color:#FFFFFF"
   offset="1" />
	</linearGradient>
	
		<linearGradient
   gradientTransform="matrix(0.4137,0,0,-0.4137,-621.131,-570.9557)"
   y2="-1518.1238"
   x2="1676.842"
   y1="-1610.5568"
   x1="1676.778"
   gradientUnits="userSpaceOnUse"
   id="SVGID_4_">
		<stop
   id="stop976"
   style="stop-color:#CDC9CB"
   offset="0" />
		<stop
   id="stop978"
   style="stop-color:#FFFFFF"
   offset="1" />
	</linearGradient>
	<path
   style="fill:url(#SVGID_3_);stroke:url(#SVGID_4_)"
   id="path981"
   d="M 60.328,91.11 C 53.474,87.717 14.83,47.856 11.566,40.812 4.523,25.616 14.402,7.912 31.126,5.776 38.909,4.778 44.79,6.099 49.68,9.946 l 3.458,2.72 6.034,-3.536 C 67.595,4.194 77.382,4.145 85.66,8.996 l 6.05,3.546 5.076,-3.462 c 4.53,-3.1 6.106,-3.41 14.675,-2.99 10.6,0.523 14.817,2.7 20.035,10.366 5.755,8.455 5.56,22.187 -0.416,29.29 -2.22,2.64 -2.8,4.208 -1.78,4.837 2.698,1.667 6.503,11.804 6.533,17.403 0.04,7.232 -2.233,13.705 -6.38,18.175 -7.92,8.54 -24.983,10.19 -34.028,3.3 -4.22,-3.218 -4.788,-3.338 -6.43,-1.358 -5.016,6.048 -19.473,7.57 -28.67,3.016 z m 21.705,-2.48 c 3.026,-1.374 5.912,-3.16 6.412,-3.97 1.404,-2.272 5.425,-1.745 7.946,1.04 1.25,1.382 4.973,3.268 8.272,4.192 11.047,3.091 22.337,-2.859 26.597,-14.019 2.782,-7.286 1.805,-13.994 -3.08,-21.13 -2.88,-4.206 -3.212,-5.503 -1.88,-7.333 3.568,-4.9 6.84,-13.13 6.866,-17.277 0.036,-5.474 -4.13,-13.83 -8.684,-17.412 -8.263,-6.5 -17.756,-6.798 -26.546,-0.833 -6.05,4.106 -6.252,4.1 -13,-0.37 C 77.221,6.416 67.729,6.493 59.83,11.72 55.09,14.857 53.738,15.208 51.363,13.916 39.417,7.42 38,6.963 32.402,7.803 c -7.808,1.17 -13.978,5.63 -17.537,12.677 -3.678,7.28 -3.807,13.26 -0.427,19.76 1.415,2.72 12.105,14.43 23.755,26.02 25.693,25.56 30.93,28.233 43.84,22.37 z M 67.197,78.928 c -4.73,-2.68 -42.057,-41.05 -43.418,-44.63 -2.705,-7.115 2.947,-15.124 10.65,-15.1 4.066,0.018 6.385,1.505 15.768,10.114 l 11,10.093 v -6.842 c 0,-8.56 4.01,-13.387 11.125,-13.387 7.26,0 10.7,3.746 11.514,12.546 l 0.694,7.492 10.27,-10.02 c 8.162,-7.964 11.1,-10.02 14.27,-10.02 6.223,0 10.576,2.633 12.13,7.338 1.85,5.608 0.274,9.58 -6.58,16.573 -2.98,3.042 -5.42,5.898 -5.42,6.348 0,0.45 3.072,4.065 6.827,8.035 6.26,6.62 6.762,7.62 6.043,12.05 -0.99,6.11 -4.39,9.53 -10.44,10.512 -4.3,0.698 -5.45,0.132 -12.268,-6.043 -4.138,-3.747 -7.855,-6.813 -8.262,-6.813 -0.407,0 -3.66,3 -7.233,6.667 -6.8,6.983 -11.028,8.27 -16.667,5.074 z m 16,-9.074 c 3.612,-3.667 7.13,-6.667 7.82,-6.667 0.69,0 4.427,3 8.304,6.667 7.614,7.2 12.35,8.46 16.77,4.46 4.26,-3.856 3.027,-8.703 -4.22,-16.567 -3.662,-3.974 -6.662,-7.807 -6.667,-8.518 -0.005,-0.711 2.93,-4.3 6.518,-8 8.087,-8.313 9.063,-11.176 5.4,-15.832 -4.835,-6.147 -8.587,-4.854 -20.593,7.096 -13.306,13.244 -15.333,13.6 -15.333,2.695 0,-9.027 -2.8,-13.333 -8.667,-13.333 -5.867,0 -8.667,4.307 -8.667,13.333 0,6.488 -0.41,8 -2.162,8 -1.19,0 -6.962,-4.8 -12.828,-10.667 -8.265,-8.265 -11.51,-10.667 -14.408,-10.667 -4.7,0 -9.695,5.797 -8.494,9.876 0.452,1.535 10.205,12.24 21.674,23.8 24.677,24.85 25.045,25 35.55,14.333 z"
   stroke-width="1.333"
   stroke="url(#SVGID_4_)"
   fill="url(#SVGID_3_)" />
	
		<linearGradient
   gradientTransform="matrix(0.4137,0,0,-0.4137,-621.131,-570.9557)"
   y2="-1518.1238"
   x2="1676.9338"
   y1="-1610.5568"
   x1="1676.8699"
   gradientUnits="userSpaceOnUse"
   id="SVGID_5_">
		<stop
   id="stop983"
   style="stop-color:#CDC9CB"
   offset="0" />
		<stop
   id="stop985"
   style="stop-color:#FFFFFF"
   offset="1" />
	</linearGradient>
	
		<linearGradient
   gradientTransform="matrix(0.4137,0,0,-0.4137,-621.131,-570.9557)"
   y2="-1518.1238"
   x2="1676.9338"
   y1="-1610.5568"
   x1="1676.8699"
   gradientUnits="userSpaceOnUse"
   id="SVGID_6_">
		<stop
   id="stop988"
   style="stop-color:#CDC9CB"
   offset="0" />
		<stop
   id="stop990"
   style="stop-color:#FFFFFF"
   offset="1" />
	</linearGradient>
	<path
   style="fill:url(#SVGID_5_);stroke:url(#SVGID_6_)"
   id="path993"
   d="M 69.353,90.634 C 65.165,89.652 59.543,85.898 51.711,78.854 41.698,69.848 20.497,47.914 15.761,41.664 11.341,35.83 11.308,27.008 15.676,19.52 19.948,12.195 28.65,7.384 36.632,7.934 c 2.646,0.182 3.64,0.553 9.503,3.54 7.86,4.006 8.062,4.014 13.82,0.542 4.778,-2.88 8.22,-3.94 12.794,-3.932 4.466,0.007 7.753,1.115 13.31,4.487 5.426,3.293 6.203,3.28 11.662,-0.178 6.462,-4.095 11.908,-5.357 17.233,-3.992 7.94,2.036 13.486,7.214 16.67,15.57 1.48,3.88 1.536,7.47 0.183,11.537 -1.03,3.095 -4.02,9.316 -5.575,11.593 -1.274,1.867 -1.1,3.15 0.846,6.255 6.26,9.987 6.988,16.002 2.95,24.362 -5.54,11.472 -18.415,15.828 -29.78,10.076 -1.19,-0.603 -2.93,-1.75 -3.863,-2.548 -1.9,-1.633 -4.375,-2.53 -5.897,-2.15 -0.56,0.14 -1.688,0.866 -2.508,1.612 -1.868,1.7 -8.395,4.887 -11.778,5.75 -2.832,0.723 -4.343,0.76 -6.85,0.173 z m 7.787,-11.12 c 1.807,-0.903 4.305,-2.937 8.233,-6.702 l 5.638,-5.405 1.573,1.2 c 0.865,0.66 3.52,2.924 5.898,5.032 7.04,6.238 7.57,6.533 11.624,6.496 4.165,-0.04 6.64,-1.07 9.183,-3.83 2.913,-3.16 3.982,-9.195 2.23,-12.58 -0.454,-0.876 -2.698,-3.622 -4.986,-6.102 l -5.662,-6.327 -1.5,-1.82 1.227,-1.463 c 0.675,-0.805 3.015,-3.45 5.2,-5.88 5.035,-5.6 6.118,-7.684 6.118,-11.776 0,-6.574 -3.894,-10.583 -10.913,-11.24 -5.058,-0.472 -7.164,0.892 -18.56,12.017 l -7.743,7.56 -0.494,-5.046 c -0.272,-2.775 -0.773,-5.974 -1.115,-7.11 -1.438,-4.777 -4.434,-7.085 -9.685,-7.46 -5.387,-0.385 -8.95,1.612 -11.046,6.193 -0.945,2.065 -1.155,3.27 -1.374,7.9 l -0.258,5.452 -6.01,-5.546 C 46.58,25.569 41.532,21.332 39.358,20.181 c -2.533,-1.34 -7.505,-1.356 -10.002,-0.034 -2.1,1.118 -4.746,3.946 -5.665,6.08 -0.9,2.088 -0.896,6.76 0.007,8.433 2.264,4.2 36.91,40.008 42.3,43.732 3.985,2.752 7.237,3.082 11.144,1.13 z"
   stroke-width="1.045"
   stroke="url(#SVGID_6_)"
   fill="url(#SVGID_5_)" />
	
		<linearGradient
   gradientTransform="matrix(0.4137,0,0,-0.4137,-621.131,-570.9557)"
   y2="-1518.1089"
   x2="1655.3744"
   y1="-1610.5419"
   x1="1655.3103"
   gradientUnits="userSpaceOnUse"
   id="SVGID_7_">
		<stop
   id="stop995"
   style="stop-color:#CDC9CB"
   offset="0" />
		<stop
   id="stop997"
   style="stop-color:#FFFFFF"
   offset="1" />
	</linearGradient>
	
		<linearGradient
   gradientTransform="matrix(0.4137,0,0,-0.4137,-621.131,-570.9557)"
   y2="-1518.1089"
   x2="1655.3743"
   y1="-1610.5419"
   x1="1655.3103"
   gradientUnits="userSpaceOnUse"
   id="SVGID_8_">
		<stop
   id="stop1000"
   style="stop-color:#CDC9CB"
   offset="0" />
		<stop
   id="stop1002"
   style="stop-color:#FFFFFF"
   offset="1" />
	</linearGradient>
	<path
   style="fill:url(#SVGID_7_);stroke:url(#SVGID_8_)"
   id="path1005"
   d="m 61.44,43.1 c -1.346,-0.482 -5.06,-3.472 -9.445,-7.604 -0.693,-0.653 -2.312,-2.226 -3.597,-3.495 -5.103,-5.04 -7.404,-7.087 -9.634,-8.572 -1.64,-1.093 -3,-1.6 -4.287,-1.598 -1.61,0.001 -3.518,0.752 -5.007,1.97 l -0.407,0.33 c -0.09,0.07 -0.094,-0.3 -0.094,-7.554 V 8.948 h 19.276 l 0.25,0.17 c 0.43,0.293 1.262,0.93 2.98,2.283 0.9,0.717 1.67,1.295 1.69,1.284 0.02,-0.011 1.465,-0.857 3.212,-1.88 l 3.176,-1.86 25.958,10e-4 3.032,1.778 3.123,1.803 c 0.056,0.015 1.09,-0.658 2.734,-1.78 l 2.644,-1.803 h 1.375 l -0.008,21.657 -2.8,2.743 -5.534,5.28 c -3.483,3.134 -5.68,4.49 -6.87,4.242 -0.648,-0.134 -1.13,-0.67 -1.42,-1.575 -0.37,-1.15 -0.477,-2.23 -0.544,-5.403 -0.054,-2.564 -0.105,-3.574 -0.24,-4.697 -0.598,-4.952 -2.438,-7.91 -5.554,-8.93 -1.03,-0.336 -2.09,-0.47 -3.328,-0.42 -2.25,0.093 -3.815,0.72 -5.157,2.07 -1.432,1.44 -2.308,3.454 -2.786,6.407 -0.206,1.275 -0.272,2.28 -0.32,4.925 -0.076,4.06 -0.14,5.02 -0.412,6.2 -0.257,1.115 -0.808,1.695 -1.602,1.686 -0.1351,0.0021 -0.2701,-0.009 -0.403,-0.033 z m -0.23,-3.866 c -0.014,-0.052 -0.026,-0.022 -0.027,0.066 -10e-4,0.088 0.01,0.13 0.025,0.095 0.015,-0.035 0.016,-0.11 0.002,-0.16 z"
   stroke-width="0.131"
   stroke="url(#SVGID_8_)"
   fill="url(#SVGID_7_)" />
</g>
</svg>
